<svg width="24" height="24" viewBox="0 0 24 24" fill="none" xmlns="http://www.w3.org/2000/svg">
  <g stroke="currentColor" stroke-width="2.15" stroke-linecap="round" stroke-linejoin="round">
    <path d="M2.4 6.2C2.4 4 4.1 2.3 6.3 2.3h8"/>
    <path d="M21.6 10.7v6.8c0 2.2-1.7 3.9-3.9 3.9H6.3c-2.2 0-3.9-1.7-3.9-3.9V6.2"/>
    <path d="M15.9 3.7a3.8 3.8 0 1 1 5.4 5.4 3.8 3.8 0 0 1-5.4-5.4"/>
    <path d="M19.9 9l2.1 2.1"/>
    <path d="M7.4 10.7l3.3-2.3 1.7.2-3.8 2.6"/>
    <path d="M10.3 11.3l5 6.1"/>
    <path d="M12 9.8l5 6.1"/>
    <path d="M6.5 12.5l2.1 2.1"/>
    <path d="M6.8 17.8h5.8"/>
  </g>
</svg>
